<?xml version="1.0" encoding="UTF-8"?> <svg xmlns="http://www.w3.org/2000/svg" width="450" height="255" viewBox="0 0 450 255"><g id="_Why_is_it_high_time_to_migrate_to_Dynamics_365_" data-name=" Why is it high time to migrate to Dynamics 365? " transform="translate(-1457 -502)"><g id="Group_4187" data-name="Group 4187" transform="translate(0 20)"><rect id="Rectangle_63" data-name="Rectangle 63" width="450" height="255" transform="translate(1457 482)" fill="#fff6e9"></rect><g id="undraw_season_change_f99v" transform="translate(1545 527.005)"><circle id="Ellipse_51" data-name="Ellipse 51" cx="14.06" cy="14.06" r="14.06" transform="translate(8.527 7.739)" fill="#ff6584"></circle><ellipse id="Ellipse_52" data-name="Ellipse 52" cx="136.402" cy="5.502" rx="136.402" ry="5.502" transform="translate(0 154.296)" fill="#e6e6e6"></ellipse><circle id="Ellipse_53" data-name="Ellipse 53" cx="34.54" cy="34.54" r="34.54" transform="translate(0 21.765)" fill="#2b7cfe"></circle><path id="Path_15608" data-name="Path 15608" d="M107.822,276.439h-7.075L103.972,167.2Z" transform="translate(-69.952 -116.097)" fill="#3f3d56"></path><path id="Path_15609" data-name="Path 15609" d="M111.213,211.064l7.595-10.507-7.7,13.108-.832-1.457Z" transform="translate(-76.569 -139.258)" fill="#3f3d56"></path><path id="Path_15610" data-name="Path 15610" d="M93.366,245.781l-7.595-10.507,7.7,13.108.832-1.456Z" transform="translate(-59.554 -163.363)" fill="#3f3d56"></path><path id="Path_15611" data-name="Path 15611" d="M811.435,276.815h-7.074l3.225-109.238Z" transform="translate(-557.123 -116.359)" fill="#3f3d56"></path><path id="Path_15612" data-name="Path 15612" d="M814.827,211.44l7.595-10.507-7.7,13.108-.832-1.456Z" transform="translate(-563.74 -139.519)" fill="#3f3d56"></path><path id="Path_15613" data-name="Path 15613" d="M796.979,246.157l-7.595-10.507,7.7,13.108.832-1.456Z" transform="translate(-546.725 -163.624)" fill="#3f3d56"></path><circle id="Ellipse_54" data-name="Ellipse 54" cx="64.343" cy="64.343" r="64.343" transform="translate(76.698 31.751)" fill="#3f3d56"></circle><circle id="Ellipse_55" data-name="Ellipse 55" cx="59.017" cy="59.017" r="59.017" transform="translate(82.021 37.078)" fill="#fff"></circle><circle id="Ellipse_56" data-name="Ellipse 56" cx="7.883" cy="7.883" r="7.883" transform="translate(132.927 88.425)" fill="#3f3d56"></circle><rect id="Rectangle_58" data-name="Rectangle 58" width="3.409" height="6.392" transform="translate(139.105 40.061)" fill="#3f3d56"></rect><rect id="Rectangle_59" data-name="Rectangle 59" width="3.409" height="6.392" transform="translate(139.105 146.163)" fill="#3f3d56"></rect><rect id="Rectangle_60" data-name="Rectangle 60" width="3.409" height="6.392" transform="translate(90.68 94.603) rotate(90)" fill="#3f3d56"></rect><rect id="Rectangle_61" data-name="Rectangle 61" width="3.409" height="6.392" transform="translate(197.33 94.603) rotate(90)" fill="#3f3d56"></rect><path id="Path_15614" data-name="Path 15614" d="M450.924,311.154l2.913-6.661,36.5,20.217Z" transform="translate(-312.282 -211.424)" fill="#3f3d56"></path><rect id="Rectangle_62" data-name="Rectangle 62" width="16.618" height="19.175" transform="translate(132.715 16.199)" fill="#3f3d56"></rect><ellipse id="Ellipse_57" data-name="Ellipse 57" cx="19.175" cy="5.326" rx="19.175" ry="5.326" transform="translate(121.851 10.872)" fill="#3f3d56"></ellipse><path id="Path_15615" data-name="Path 15615" d="M716.143,527.9l-1.065,1.491s-4.9,5.752-5.113,2.983,3.622-4.687,3.622-4.687l2.13-1.278Z" transform="translate(-539.051 -420.402)" fill="#ffb8b8"></path><path id="Path_15616" data-name="Path 15616" d="M825.942,547.17l.892,1.6s3.1,6.891.508,5.9-2.686-5.279-2.686-5.279l-.244-2.473Z" transform="translate(-618.35 -434.645)" fill="#ffb8b8"></path><circle id="Ellipse_58" data-name="Ellipse 58" cx="6.487" cy="6.487" r="6.487" transform="translate(196.293 71.16)" fill="#2f2e41"></circle><path id="Path_15617" data-name="Path 15617" d="M811.751,607.224l.852,5.539v1.7h4.9v-2.13s.213-3.835-.639-4.9S811.751,607.224,811.751,607.224Z" transform="translate(-609.572 -476.294)" fill="#ffb8b8"></path><path id="Path_15618" data-name="Path 15618" d="M783.173,607.224l.852,5.539v1.7h4.9v-2.13s.213-3.835-.639-4.9S783.173,607.224,783.173,607.224Z" transform="translate(-589.774 -476.294)" fill="#ffb8b8"></path><path id="Path_15619" data-name="Path 15619" d="M791.582,462.384s-1.885.993-.6,3.253,8.84,25.638,8.84,25.638l4.358-1.237-3.843-14.785-2.2-9.293Z" transform="translate(-594.844 -375.951)" fill="#6c63ff"></path><circle id="Ellipse_59" data-name="Ellipse 59" cx="4.9" cy="4.9" r="4.9" transform="translate(197.162 74.576)" fill="#ffb8b8"></circle><path id="Path_15620" data-name="Path 15620" d="M807.106,442.063l-.639,10.014-4.474-3.2s1.491-5.966,1.065-6.392Z" transform="translate(-602.814 -361.841)" fill="#ffb8b8"></path><path id="Path_15621" data-name="Path 15621" d="M795.335,463.114l-4.82-3.569s-2.211-.9-2.85.16-3.835,16.831-2.13,19.814c0,0,9.161,1.917,11.079.852l.852-5.539s1.065-3.409-.639-5.539Z" transform="translate(-591.041 -373.73)" fill="#2b7cfe"></path><path id="Path_15622" data-name="Path 15622" d="M746.509,460.716s-1.7-1.278-3.2.852-19.388,18.962-19.388,18.962l2.983,3.409,11.718-9.8,7.457-5.966Z" transform="translate(-548.669 -374.528)" fill="#2b7cfe"></path><path id="Path_15623" data-name="Path 15623" d="M793.1,525.692s-10.546-2.024-11.612-.533l-.213,2.344s-2.344,4.474-1.065,11.718a35.672,35.672,0,0,1,.426,11.718,47.114,47.114,0,0,1,10.014,0c4.261.639,4.9,0,4.9,0Z" transform="translate(-587.422 -419.157)" fill="#2f2e41"></path><path id="Path_15624" data-name="Path 15624" d="M817.93,628.868l-6.179.213,2.131,15.979s-1.7,6.818.213,7.244a21.6,21.6,0,0,0,4.048.426s1.917,1.918,4.048,1.7a11.93,11.93,0,0,0,4.048-1.278,1.324,1.324,0,0,0-1.065-1.7c-1.491-.426-5.54-1.7-6.392-6.179Z" transform="translate(-609.537 -491.547)" fill="#2f2e41"></path><path id="Path_15625" data-name="Path 15625" d="M789.352,628.868l-6.179.213,2.13,15.979s-1.7,6.818.213,7.244a21.6,21.6,0,0,0,4.048.426s1.917,1.918,4.048,1.7a11.93,11.93,0,0,0,4.048-1.278,1.324,1.324,0,0,0-1.065-1.7c-1.491-.426-5.54-1.7-6.392-6.179Z" transform="translate(-589.741 -491.547)" fill="#2f2e41"></path><circle id="Ellipse_60" data-name="Ellipse 60" cx="2.684" cy="2.684" r="2.684" transform="translate(202.367 68.135)" fill="#2f2e41"></circle><path id="Path_15626" data-name="Path 15626" d="M827.4,400.448a2.685,2.685,0,0,0-2.4-2.67,2.684,2.684,0,1,1,0,5.34A2.685,2.685,0,0,0,827.4,400.448Z" transform="translate(-618.757 -331.082)" fill="#2f2e41"></path><ellipse id="Ellipse_61" data-name="Ellipse 61" cx="4.474" cy="2.684" rx="4.474" ry="2.684" transform="translate(197.543 73.588)" fill="#2f2e41"></ellipse><path id="Path_15627" data-name="Path 15627" d="M924.039,192.479a13.656,13.656,0,0,0-26.793-2.879c-.165-.006-.331-.013-.5-.013a13.658,13.658,0,0,0-13.1,9.806,9.651,9.651,0,0,0-11.453,2.851h42.6a9.237,9.237,0,0,0,9.257-9.564C924.046,192.614,924.043,192.547,924.039,192.479Z" transform="translate(-651.2 -179.599)" fill="#e6e6e6"></path><circle id="Ellipse_62" data-name="Ellipse 62" cx="3.668" cy="3.668" r="3.668" transform="translate(233.56 34.285)" fill="#e6e6e6"></circle><circle id="Ellipse_63" data-name="Ellipse 63" cx="3.054" cy="3.054" r="3.054" transform="translate(245.249 26.251)" fill="#e6e6e6"></circle><circle id="Ellipse_64" data-name="Ellipse 64" cx="3.668" cy="3.668" r="3.668" transform="translate(259.542 42.232)" fill="#e6e6e6"></circle><circle id="Ellipse_65" data-name="Ellipse 65" cx="3.668" cy="3.668" r="3.668" transform="translate(231.726 59.044)" fill="#e6e6e6"></circle><circle id="Ellipse_66" data-name="Ellipse 66" cx="3.668" cy="3.668" r="3.668" transform="translate(259.542 80.135)" fill="#e6e6e6"></circle><path id="Path_15628" data-name="Path 15628" d="M956.57,674.455c0-.04.006-.079.006-.119a5.791,5.791,0,0,0-11.56-.3l-.056,0a5.528,5.528,0,0,0,8.545,6.939,3.665,3.665,0,1,0,3.064-6.514Z" transform="translate(-699.174 -519.926)" fill="#e6e6e6"></path><circle id="Ellipse_67" data-name="Ellipse 67" cx="1.528" cy="1.528" r="1.528" transform="translate(265.043 67.602)" fill="#e6e6e6"></circle><circle id="Ellipse_68" data-name="Ellipse 68" cx="1.528" cy="1.528" r="1.528" transform="translate(255.262 30.923)" fill="#e6e6e6"></circle><circle id="Ellipse_69" data-name="Ellipse 69" cx="1.528" cy="1.528" r="1.528" transform="translate(250.066 68.825)" fill="#e6e6e6"></circle><circle id="Ellipse_70" data-name="Ellipse 70" cx="1.528" cy="1.528" r="1.528" transform="translate(251.289 67.297)" fill="#e6e6e6"></circle><circle id="Ellipse_71" data-name="Ellipse 71" cx="1.528" cy="1.528" r="1.528" transform="translate(252.206 65.768)" fill="#e6e6e6"></circle><circle id="Ellipse_72" data-name="Ellipse 72" cx="1.528" cy="1.528" r="1.528" transform="translate(248.538 78.606)" fill="#e6e6e6"></circle><circle id="Ellipse_73" data-name="Ellipse 73" cx="1.528" cy="1.528" r="1.528" transform="translate(271.157 95.723)" fill="#e6e6e6"></circle><circle id="Ellipse_74" data-name="Ellipse 74" cx="1.528" cy="1.528" r="1.528" transform="translate(238.451 96.64)" fill="#e6e6e6"></circle><circle id="Ellipse_75" data-name="Ellipse 75" cx="1.528" cy="1.528" r="1.528" transform="translate(240.285 49.568)" fill="#e6e6e6"></circle><circle id="Ellipse_76" data-name="Ellipse 76" cx="1.528" cy="1.528" r="1.528" transform="translate(247.315 77.078)" fill="#e6e6e6"></circle><circle id="Ellipse_77" data-name="Ellipse 77" cx="1.528" cy="1.528" r="1.528" transform="translate(245.787 74.633)" fill="#e6e6e6"></circle></g></g></g></svg> 